<?xml version="1.0" encoding="UTF-8" standalone="no"?>
<!-- Generator: Adobe Illustrator 18.0.0, SVG Export Plug-In . SVG Version: 6.00 Build 0)  -->

<svg
   xmlns:dc="http://purl.org/dc/elements/1.1/"
   xmlns:cc="http://creativecommons.org/ns#"
   xmlns:rdf="http://www.w3.org/1999/02/22-rdf-syntax-ns#"
   xmlns:svg="http://www.w3.org/2000/svg"
   xmlns="http://www.w3.org/2000/svg"
   xmlns:sodipodi="http://sodipodi.sourceforge.net/DTD/sodipodi-0.dtd"
   xmlns:inkscape="http://www.inkscape.org/namespaces/inkscape"
   version="1.1"
   id="Capa_1"
   x="0px"
   y="0px"
   viewBox="0 0 44.951 44.951"
   style="enable-background:new 0 0 44.951 44.951;"
   xml:space="preserve"
   inkscape:version="0.91 r13725"
   sodipodi:docname="coffee.svg"><metadata
     id="metadata3387"><rdf:RDF><cc:Work
         rdf:about=""><dc:format>image/svg+xml</dc:format><dc:type
           rdf:resource="http://purl.org/dc/dcmitype/StillImage" /></cc:Work></rdf:RDF></metadata><defs
     id="defs3385" /><sodipodi:namedview
     pagecolor="#ffffff"
     bordercolor="#666666"
     borderopacity="1"
     objecttolerance="10"
     gridtolerance="10"
     guidetolerance="10"
     inkscape:pageopacity="0"
     inkscape:pageshadow="2"
     inkscape:window-width="1280"
     inkscape:window-height="657"
     id="namedview3383"
     showgrid="false"
     inkscape:zoom="2.7140664"
     inkscape:cx="106.57323"
     inkscape:cy="-31.910593"
     inkscape:window-x="-8"
     inkscape:window-y="-8"
     inkscape:window-maximized="1"
     inkscape:current-layer="g4191" /><g
     id="g3353" /><g
     id="g3355" /><g
     id="g3357" /><g
     id="g3359" /><g
     id="g3361" /><g
     id="g3363" /><g
     id="g3365" /><g
     id="g3367" /><g
     id="g3369" /><g
     id="g3371" /><g
     id="g3373" /><g
     id="g3375" /><g
     id="g3377" /><g
     id="g3379" /><g
     id="g3381" /><g
     id="g4191"
     inkscape:export-xdpi="93.400002"
     inkscape:export-ydpi="93.400002"
     inkscape:export-filename="C:\Users\simon\Documents\Freelance\Android Porte Folio\LittleCoffeeShop\app\src\main\res\drawable\logo.png"><g
       transform="matrix(1.5737998,0,0,1.5737998,57.898473,-1.3633696)"
       id="g3337"><path
         inkscape:connector-curvature="0"
         id="path3339"
         d="m 37.976,12.951 -31,0 c -1.1,0 -2,-0.9 -2,-2 l 0,-3.829 c 0,-1.1 0.9,-2 2,-2 l 31,0 c 1.1,0 2,0.9 2,2 l 0,3.829 c 0,1.1 -0.9,2 -2,2 z"
         style="fill:#d2d5d7" /><path
         inkscape:connector-curvature="0"
         id="path3341"
         d="m 36.561,5.122 -28.171,0 0,-3.415 C 8.39,0.764 9.155,0 10.098,0 l 24.756,1.707 c 0.943,0 1.707,0.764 1.707,1.707 l 0,1.708 z"
         style="fill:#e6e6e6" /><path
         inkscape:connector-curvature="0"
         id="path3343"
         d="m 7.976,12.951 2.998,30.293 c 0,0.939 0.768,1.707 1.707,1.707 l 19.634,0 c 0.939,0 1.707,-0.768 1.707,-1.707 l 2.998,-30.293 -29.044,0 z"
         style="fill:#659c35" /><g
         id="g3345"><path
           inkscape:connector-curvature="0"
           id="path3347"
           d="m 15.691,23.951 c 1.558,-2.07 4.028,-3.415 6.818,-3.415 2.79,0 5.26,1.345 6.818,3.415 l 6.695,-1.195 0.999,-9.805 -29.045,0 0.999,9.805 6.716,1.195 z"
           style="fill:#e6e6e6" /><path
           inkscape:connector-curvature="0"
           id="path3349"
           d="m 29.326,31.951 c -1.558,2.07 -4.028,3.415 -6.818,3.415 -2.79,0 -5.26,-1.345 -6.818,-3.415 L 9.974,33 10.973,43.244 c 0,0.939 0.768,1.707 1.707,1.707 l 19.634,0 c 0.939,0 1.707,-0.768 1.707,-1.707 L 35.022,33 29.326,31.951 Z"
           style="fill:#e6e6e6" /></g><ellipse
         id="ellipse3351"
         ry="5.7779999"
         rx="6.5"
         cy="28"
         cx="22.476"
         style="fill:#ffffff" /></g><circle
       r="47.677734"
       cy="34.008568"
       cx="93.271194"
       id="path3389"
       style="fill:#ffffff;fill-opacity:0;stroke:#ffffff;stroke-width:1;stroke-linecap:round;stroke-linejoin:round;stroke-miterlimit:4;stroke-dasharray:none;stroke-dashoffset:0;stroke-opacity:1"
       inkscape:export-filename="C:\Users\simon\Documents\Freelance\Android Porte Folio\LittleCoffeeShop\app\src\main\res\drawable\logo.png"
       inkscape:export-xdpi="93.400002"
       inkscape:export-ydpi="93.400002" /></g></svg>